<svg width="1266" height="345" viewBox="0 0 1266 345" fill="none" xmlns="http://www.w3.org/2000/svg">
<path d="M344.457 275.854V120.944H405.573C417.323 120.944 427.332 123.188 435.602 127.676C443.872 132.114 450.175 138.291 454.512 146.208C458.899 154.074 461.093 163.151 461.093 173.438C461.093 183.725 458.874 192.802 454.436 200.668C449.999 208.535 443.57 214.661 435.148 219.048C426.778 223.436 416.642 225.629 404.741 225.629H365.787V199.382H399.447C405.75 199.382 410.944 198.298 415.028 196.13C419.163 193.911 422.239 190.86 424.256 186.977C426.324 183.044 427.358 178.531 427.358 173.438C427.358 168.295 426.324 163.807 424.256 159.974C422.239 156.091 419.163 153.091 415.028 150.973C410.893 148.805 405.649 147.721 399.295 147.721H377.209V275.854H344.457ZM481.761 275.854V159.672H513V179.943H514.21C516.328 172.732 519.883 167.286 524.875 163.605C529.868 159.873 535.616 158.008 542.121 158.008C543.735 158.008 545.474 158.108 547.34 158.31C549.206 158.512 550.845 158.789 552.257 159.142V187.734C550.744 187.28 548.651 186.877 545.979 186.524C543.306 186.171 540.86 185.994 538.642 185.994C533.902 185.994 529.666 187.028 525.934 189.095C522.253 191.112 519.328 193.936 517.16 197.567C515.042 201.198 513.983 205.383 513.983 210.123V275.854H481.761ZM616.002 278.123C604.252 278.123 594.092 275.627 585.519 270.634C576.997 265.592 570.416 258.583 565.777 249.607C561.138 240.58 558.818 230.117 558.818 218.216C558.818 206.215 561.138 195.726 565.777 186.751C570.416 177.724 576.997 170.715 585.519 165.723C594.092 160.68 604.252 158.159 616.002 158.159C627.751 158.159 637.887 160.68 646.409 165.723C654.981 170.715 661.587 177.724 666.226 186.751C670.865 195.726 673.185 206.215 673.185 218.216C673.185 230.117 670.865 240.58 666.226 249.607C661.587 258.583 654.981 265.592 646.409 270.634C637.887 275.627 627.751 278.123 616.002 278.123ZM616.153 253.162C621.498 253.162 625.961 251.649 629.541 248.623C633.121 245.547 635.819 241.362 637.635 236.067C639.5 230.773 640.433 224.747 640.433 217.99C640.433 211.232 639.5 205.206 637.635 199.912C635.819 194.617 633.121 190.432 629.541 187.356C625.961 184.28 621.498 182.742 616.153 182.742C610.757 182.742 606.219 184.28 602.538 187.356C598.907 190.432 596.159 194.617 594.293 199.912C592.478 205.206 591.57 211.232 591.57 217.99C591.57 224.747 592.478 230.773 594.293 236.067C596.159 241.362 598.907 245.547 602.538 248.623C606.219 251.649 610.757 253.162 616.153 253.162ZM755.934 159.672V183.876H685.968V159.672H755.934ZM701.852 131.836H734.074V240.152C734.074 243.127 734.528 245.447 735.436 247.111C736.344 248.724 737.604 249.859 739.218 250.514C740.882 251.17 742.798 251.498 744.967 251.498C746.479 251.498 747.992 251.372 749.505 251.119C751.018 250.817 752.177 250.59 752.984 250.439L758.052 274.416C756.438 274.921 754.169 275.501 751.245 276.156C748.32 276.862 744.765 277.291 740.579 277.442C732.814 277.744 726.006 276.711 720.157 274.341C714.358 271.971 709.845 268.29 706.617 263.297C703.39 258.305 701.802 252.002 701.852 244.388V131.836ZM828.17 278.123C816.42 278.123 806.26 275.627 797.687 270.634C789.165 265.592 782.584 258.583 777.945 249.607C773.306 240.58 770.986 230.117 770.986 218.216C770.986 206.215 773.306 195.726 777.945 186.751C782.584 177.724 789.165 170.715 797.687 165.723C806.26 160.68 816.42 158.159 828.17 158.159C839.919 158.159 850.055 160.68 858.577 165.723C867.149 170.715 873.755 177.724 878.394 186.751C883.033 195.726 885.353 206.215 885.353 218.216C885.353 230.117 883.033 240.58 878.394 249.607C873.755 258.583 867.149 265.592 858.577 270.634C850.055 275.627 839.919 278.123 828.17 278.123ZM828.321 253.162C833.666 253.162 838.129 251.649 841.709 248.623C845.289 245.547 847.987 241.362 849.802 236.067C851.668 230.773 852.601 224.747 852.601 217.99C852.601 211.232 851.668 205.206 849.802 199.912C847.987 194.617 845.289 190.432 841.709 187.356C838.129 184.28 833.666 182.742 828.321 182.742C822.925 182.742 818.387 184.28 814.706 187.356C811.075 190.432 808.327 194.617 806.461 199.912C804.646 205.206 803.738 211.232 803.738 217.99C803.738 224.747 804.646 230.773 806.461 236.067C808.327 241.362 811.075 245.547 814.706 248.623C818.387 251.649 822.925 253.162 828.321 253.162ZM958.799 278.123C946.898 278.123 936.661 275.601 928.089 270.559C919.567 265.466 913.012 258.406 908.423 249.38C903.884 240.354 901.615 229.966 901.615 218.216C901.615 206.316 903.91 195.878 908.498 186.902C913.138 177.876 919.718 170.841 928.24 165.798C936.762 160.705 946.898 158.159 958.647 158.159C968.783 158.159 977.658 159.999 985.272 163.681C992.887 167.362 998.913 172.53 1003.35 179.187C1007.79 185.843 1010.23 193.659 1010.69 202.635H980.28C979.423 196.836 977.154 192.171 973.473 188.642C969.842 185.061 965.077 183.271 959.177 183.271C954.185 183.271 949.823 184.633 946.091 187.356C942.41 190.028 939.536 193.936 937.468 199.08C935.401 204.223 934.367 210.451 934.367 217.763C934.367 225.175 935.376 231.479 937.393 236.672C939.46 241.866 942.36 245.825 946.091 248.548C949.823 251.271 954.185 252.632 959.177 252.632C962.858 252.632 966.161 251.876 969.085 250.363C972.061 248.85 974.506 246.657 976.422 243.782C978.389 240.858 979.675 237.353 980.28 233.269H1010.69C1010.18 242.144 1007.76 249.96 1003.43 256.717C999.139 263.423 993.214 268.668 985.65 272.45C978.087 276.232 969.136 278.123 958.799 278.123ZM1083.81 278.123C1072.06 278.123 1061.9 275.627 1053.33 270.634C1044.81 265.592 1038.23 258.583 1033.59 249.607C1028.95 240.58 1026.63 230.117 1026.63 218.216C1026.63 206.215 1028.95 195.726 1033.59 186.751C1038.23 177.724 1044.81 170.715 1053.33 165.723C1061.9 160.68 1072.06 158.159 1083.81 158.159C1095.56 158.159 1105.7 160.68 1114.22 165.723C1122.79 170.715 1129.4 177.724 1134.04 186.751C1138.67 195.726 1140.99 206.215 1140.99 218.216C1140.99 230.117 1138.67 240.58 1134.04 249.607C1129.4 258.583 1122.79 265.592 1114.22 270.634C1105.7 275.627 1095.56 278.123 1083.81 278.123ZM1083.96 253.162C1089.31 253.162 1093.77 251.649 1097.35 248.623C1100.93 245.547 1103.63 241.362 1105.44 236.067C1107.31 230.773 1108.24 224.747 1108.24 217.99C1108.24 211.232 1107.31 205.206 1105.44 199.912C1103.63 194.617 1100.93 190.432 1097.35 187.356C1093.77 184.28 1089.31 182.742 1083.96 182.742C1078.57 182.742 1074.03 184.28 1070.35 187.356C1066.72 190.432 1063.97 194.617 1062.1 199.912C1060.29 205.206 1059.38 211.232 1059.38 217.99C1059.38 224.747 1060.29 230.773 1062.1 236.067C1063.97 241.362 1066.72 245.547 1070.35 248.623C1074.03 251.649 1078.57 253.162 1083.96 253.162ZM1194.17 120.944V275.854H1161.95V120.944H1194.17Z" fill="black"/>
<path d="M141.326 1H120.798V284.972H141.326V1Z" fill="black" stroke="black" stroke-width="1.5"/>
<path d="M1 104.343L1 124.871H83.1117V104.343H1Z" fill="black" stroke="black" stroke-width="1.5"/>
<path d="M1.05615 225.886L18.652 236.459L98.071 104.284L74.1223 104.284L1.05615 225.886Z" fill="black" stroke="black" stroke-width="1.5"/>
<path d="M262.261 104.343V124.871H180.137V104.343H262.261Z" fill="black" stroke="black" stroke-width="1.5"/>
<path d="M262.211 225.886L244.613 236.458L165.183 104.284L189.135 104.284L262.211 225.886Z" fill="black" stroke="black" stroke-width="1.5"/>

<style>
    @media (prefers-color-scheme:dark){:root{filter:invert(100%)}}
  </style>
</svg>
